<svg width="101" height="122" viewBox="0 0 101 122" fill="none" xmlns="http://www.w3.org/2000/svg">
<g clip-path="url(#clip0_301_1264)">
<path d="M72.2324 0.0341797H50.0745V25.5265H72.2324V0.0341797Z" fill="white"/>
<path d="M50.0745 46.2593H72.2324V82.2121C72.3336 90.8634 69.8715 99.3495 65.1589 106.592C60.5058 113.628 51.5233 122 34.9049 122C16.8037 122 6.25316 113.44 0.560303 108.749L14.5368 91.5085C20.0933 96.0454 25.4453 99.7777 34.9902 99.7777C42.217 99.7777 45.0975 96.833 46.785 94.2649C49.0789 90.6979 50.2655 86.5265 50.1939 82.2806L50.0745 46.2593Z" fill="white"/>
<path d="M38.774 30.166H16.6162V52.4225H38.774V30.166Z" fill="#29ABE2"/>
<path d="M83.8397 111.556C83.8397 116.299 81.4364 118.85 78.0786 118.85C74.7209 118.85 72.5221 115.819 72.5221 111.796C72.5221 107.773 74.789 104.588 78.2661 104.588C81.7432 104.588 83.8397 107.721 83.8397 111.556ZM75.0958 111.745C75.0958 114.604 76.2378 116.71 78.1979 116.71C80.1581 116.71 81.2659 114.484 81.2659 111.574C81.2659 109.023 80.2433 106.626 78.1979 106.626C76.1526 106.626 75.0958 108.937 75.0958 111.745Z" fill="white"/>
<path d="M88.2371 104.794V118.627H85.7827V104.794H88.2371Z" fill="white"/>
<path d="M90.8961 118.627V104.794H93.6232L96.5549 110.495C97.3096 111.986 97.981 113.518 98.5661 115.083C98.4127 113.371 98.3445 111.402 98.3445 109.211V104.794H100.594V118.627H98.0548L95.089 112.806C94.3038 111.277 93.6039 109.705 92.9926 108.098C92.9926 109.81 93.1119 111.745 93.1119 114.125V118.61L90.8961 118.627Z" fill="white"/>
</g>
<defs>
<clipPath id="clip0_301_1264">
<rect width="100.034" height="121.966" fill="white" transform="translate(0.560303 0.0341797)"/>
</clipPath>
</defs>
</svg>
