<?xml version="1.0" encoding="UTF-8"?><svg id="Ebene_1" xmlns="http://www.w3.org/2000/svg" viewBox="0 0 34.19 26.11"><defs><style>.cls-1{fill:#fff;}</style></defs><path class="cls-1" d="m32.31,15.17c-.4,0-.79-.13-1.11-.37l-14.11-10.53L2.99,14.8c-.4.3-.9.43-1.39.35-.49-.07-.93-.34-1.23-.75-.3-.4-.42-.91-.35-1.41.07-.5.34-.95.74-1.24L15.98.37c.32-.24.71-.37,1.11-.37s.79.13,1.11.37l15.22,11.37c.32.24.55.57.67.95s.12.79,0,1.17-.36.71-.68.94c-.32.23-.7.36-1.1.36Z"/><path class="cls-1" d="m32.31,26.1c-.4,0-.79-.13-1.11-.37l-14.11-10.53L2.99,25.73c-.4.3-.9.43-1.39.35-.49-.07-.93-.34-1.23-.75-.3-.4-.42-.91-.35-1.41.07-.5.34-.95.74-1.24l15.22-11.37c.32-.24.71-.37,1.11-.37s.79.13,1.11.37l15.22,11.37c.32.24.55.57.67.95s.12.79,0,1.17-.36.71-.68.94c-.32.23-.7.36-1.1.36Z"/></svg>